<svg id="Layer_1" data-name="Layer 1" xmlns="http://www.w3.org/2000/svg" xmlns:xlink="http://www.w3.org/1999/xlink" viewBox="0 0 269.54 31.32"><defs><style>.cls-1{fill:none;}.cls-2{clip-path:url(#clip-path);}.cls-3{fill:#f58220;}.cls-3,.cls-4,.cls-5{fill-rule:evenodd;}.cls-4{fill:#b02a30;}.cls-5,.cls-6{fill:#fff;}</style><clipPath id="clip-path" transform="translate(-2.87 -2.87)"><rect class="cls-1" width="34.49" height="36.79"/></clipPath></defs><title>logo-white</title><path class="cls-3" d="M11,9.62c7.12-7,15.74-8.87,19.2-4s.4,14.52-6.71,21.57S7.76,36,4.29,31.23,3.89,16.7,11,9.62" transform="translate(-2.87 -2.87)"/><path class="cls-4" d="M15.71,5.86a22,22,0,0,0-2.33,2C7.14,14,4.54,22.47,7.61,26.7s10.84,2.7,17.19-3.54a24.31,24.31,0,0,0,6.68-10.8A10.22,10.22,0,0,0,30.2,5.57c-2.73-3.76-8.61-3.47-14.49.29" transform="translate(-2.87 -2.87)"/><path class="cls-5" d="M19.25,30.64c-3.32,2.52-6.79,3.76-10.14,3.21,1.42.08,2.55-1.49,3.5-3.57a36.61,36.61,0,0,0,2-6c.66-2.95.69-5.07.37-5.54-.59-.73-1.87-.55-3.33.29-.72.4-1.64.14-.54-1.21a27.32,27.32,0,0,1,7.15-5.11c1.75-.51,3.76.19,3.07,2.12-.48,1.39-6.61,17.52-2.05,15.84m5-25c.84.84.33,2.66-1.09,4.09s-3.29,1.9-4.09,1.09-.37-2.66,1.06-4.12S23.49,4.84,24.29,5.64Z" transform="translate(-2.87 -2.87)"/><polygon class="cls-6" points="28.68 31.04 32.77 15.72 38.2 15.72 34.12 31.04 28.68 31.04"/><path class="cls-6" d="M54.26,23.54a2,2,0,0,0-.53-1.68,2.76,2.76,0,0,0-1.9-.56,5.23,5.23,0,0,0-3.53,1.26,7.09,7.09,0,0,0-2.07,3.59,4.31,4.31,0,0,0,.18,3.45,3.11,3.11,0,0,0,2.82,1.2,4.66,4.66,0,0,0,2.57-.69,4.35,4.35,0,0,0,1.64-2h5.63a8,8,0,0,1-3.8,4.45A15.63,15.63,0,0,1,48,34q-4.44,0-6.37-2t-1-5.6a10.26,10.26,0,0,1,4.17-6.07,13.63,13.63,0,0,1,7.86-2.13c2.73,0,4.71.45,5.91,1.35a3.7,3.7,0,0,1,1.28,4Z" transform="translate(-2.87 -2.87)"/><polygon class="cls-6" points="56.13 31.04 60.22 15.72 65.65 15.72 61.56 31.04 56.13 31.04"/><path class="cls-6" d="M81.71,23.54a2,2,0,0,0-.53-1.68,2.78,2.78,0,0,0-1.91-.56,5.19,5.19,0,0,0-3.52,1.26,7,7,0,0,0-2.07,3.59,4.27,4.27,0,0,0,.18,3.45,3.1,3.1,0,0,0,2.82,1.2,4.68,4.68,0,0,0,2.57-.69,4.35,4.35,0,0,0,1.64-2h5.63a8,8,0,0,1-3.8,4.45A15.71,15.71,0,0,1,75.43,34Q71,34,69.06,32t-1-5.6a10.26,10.26,0,0,1,4.17-6.07,13.62,13.62,0,0,1,7.85-2.13q4.11,0,5.92,1.35a3.73,3.73,0,0,1,1.28,4Z" transform="translate(-2.87 -2.87)"/><polygon class="cls-6" points="83.58 31.04 87.66 15.72 93.1 15.72 89.01 31.04 83.58 31.04"/><polygon class="cls-6" points="100.38 31.04 96.8 31.04 100.89 15.72 104.46 15.72 102.82 21.87 111.29 21.87 112.93 15.72 116.51 15.72 112.42 31.04 108.84 31.04 110.63 24.34 102.16 24.34 100.38 31.04"/><path class="cls-6" d="M133.42,28.58a6.91,6.91,0,0,1-2.95,4.12,9.89,9.89,0,0,1-5.55,1.47q-3.32,0-4.77-1.48a4,4,0,0,1-.75-4.11,6.9,6.9,0,0,1,2.95-4.12A9.86,9.86,0,0,1,127.9,23q3.33,0,4.77,1.47a4,4,0,0,1,.75,4.13m-10.53,0a2.76,2.76,0,0,0,.32,2.49,2.64,2.64,0,0,0,2.28,1,4.43,4.43,0,0,0,2.8-1A4.57,4.57,0,0,0,130,28.58a2.78,2.78,0,0,0-.33-2.5,2.66,2.66,0,0,0-2.28-1,4.41,4.41,0,0,0-2.8,1A4.58,4.58,0,0,0,122.89,28.58Z" transform="translate(-2.87 -2.87)"/><path class="cls-6" d="M152.05,33.91l1.49-5.57a3.45,3.45,0,0,0,0-2.44,1.77,1.77,0,0,0-1.72-.81,3.69,3.69,0,0,0-2.45.95,4.65,4.65,0,0,0-1.52,2.41l-1.46,5.46h-3.2l1.49-5.57a3.42,3.42,0,0,0,0-2.43,1.73,1.73,0,0,0-1.71-.82,3.7,3.7,0,0,0-2.44,1,4.5,4.5,0,0,0-1.52,2.4l-1.46,5.46h-3.27l2-7.55c0-.16.11-.49.22-1s.25-1.23.42-2.11h3.14l-.37,1.85a6.67,6.67,0,0,1,2.22-1.58,7.08,7.08,0,0,1,2.74-.51,4.84,4.84,0,0,1,2.47.54,2.3,2.3,0,0,1,1.14,1.57,8.16,8.16,0,0,1,2.35-1.61,6.87,6.87,0,0,1,2.65-.5,5.84,5.84,0,0,1,2.11.34,3,3,0,0,1,1.37,1,2.4,2.4,0,0,1,.46,1.29,7,7,0,0,1-.32,2.1l-1.65,6.18Z" transform="translate(-2.87 -2.87)"/><path class="cls-6" d="M162.06,29.39l0,.1a2.07,2.07,0,0,0,.33,2.05,3,3,0,0,0,2.27.71,3.68,3.68,0,0,0,1.89-.46,2.58,2.58,0,0,0,1.14-1.3h3.22a5.32,5.32,0,0,1-2.52,2.72,9.08,9.08,0,0,1-4.38,1q-3.16,0-4.56-1.44a4,4,0,0,1-.7-4,7.37,7.37,0,0,1,2.9-4.22A8.93,8.93,0,0,1,166.91,23c2,0,3.45.5,4.23,1.51S172,27,171.51,29l-.12.43Zm.5-1.87h6a1.93,1.93,0,0,0-.33-1.83,2.75,2.75,0,0,0-2-.61,3.94,3.94,0,0,0-2.26.65A3.63,3.63,0,0,0,162.56,27.52Z" transform="translate(-2.87 -2.87)"/><polygon class="cls-6" points="174.42 31.04 178.51 15.72 191.17 15.72 190.55 18.05 181.37 18.05 180.36 21.83 188.8 21.83 188.15 24.24 179.72 24.24 177.9 31.04 174.42 31.04"/><path class="cls-6" d="M192,33.91l2.85-10.67h3.43L195.4,33.91ZM199.6,18.6l-.74,2.77h-3.65L196,18.6Z" transform="translate(-2.87 -2.87)"/><path class="cls-6" d="M198.64,33.91l2-7.55c.05-.19.13-.56.24-1.08s.24-1.2.4-2h3.25l-.37,1.85a7,7,0,0,1,2.32-1.57,7.35,7.35,0,0,1,2.83-.52,4.42,4.42,0,0,1,3.44,1.15,3.26,3.26,0,0,1,.49,3.21l-1.75,6.55h-3.22l1.49-5.57a3.17,3.17,0,0,0-.08-2.44,2.12,2.12,0,0,0-1.94-.81,4.6,4.6,0,0,0-4.37,3.36l-1.46,5.46Z" transform="translate(-2.87 -2.87)"/><path class="cls-6" d="M222.6,33.91l.29-1.46a6.69,6.69,0,0,1-2.18,1.29,7.74,7.74,0,0,1-2.62.43,4.48,4.48,0,0,1-3.14-.93,2.37,2.37,0,0,1-.58-2.51A4,4,0,0,1,216.76,28a15.3,15.3,0,0,1,5.8-.82h1.72l.05-.2a1.87,1.87,0,0,0-.15-1.72,2.12,2.12,0,0,0-1.71-.56,3.82,3.82,0,0,0-1.82.37,2.06,2.06,0,0,0-1,1.1h-3.14a4.06,4.06,0,0,1,2.22-2.36,9.72,9.72,0,0,1,4.32-.84c1.84,0,3.13.36,3.86,1.07a3.09,3.09,0,0,1,.54,3.21l-1.14,4.28c-.13.45-.23.87-.31,1.27s-.14.76-.18,1.1ZM223.8,29h-2.07a7.44,7.44,0,0,0-2.86.41,2,2,0,0,0-1.16,1.38,1.06,1.06,0,0,0,.27,1.16,2.41,2.41,0,0,0,1.57.4,4.28,4.28,0,0,0,2.67-.85,4.08,4.08,0,0,0,1.52-2.31Z" transform="translate(-2.87 -2.87)"/><path class="cls-6" d="M228.75,33.91l2-7.55c.06-.19.14-.56.24-1.08s.24-1.2.4-2h3.25l-.36,1.85a7,7,0,0,1,2.31-1.57,7.39,7.39,0,0,1,2.83-.52,4.44,4.44,0,0,1,3.45,1.15,3.26,3.26,0,0,1,.48,3.21l-1.75,6.55h-3.22l1.49-5.57a3.12,3.12,0,0,0-.08-2.44,2.11,2.11,0,0,0-1.94-.81,4.37,4.37,0,0,0-2.74.95,4.43,4.43,0,0,0-1.63,2.41L232,33.91Z" transform="translate(-2.87 -2.87)"/><path class="cls-6" d="M254.44,30.12h3.33a5.26,5.26,0,0,1-2.57,3,9.75,9.75,0,0,1-4.75,1.07q-3.21,0-4.6-1.45a4,4,0,0,1-.69-4,7.08,7.08,0,0,1,2.92-4.22A9.66,9.66,0,0,1,253.61,23a6.37,6.37,0,0,1,3.9,1,2.48,2.48,0,0,1,1,2.66h-3.16a1.42,1.42,0,0,0-.66-1.19A3,3,0,0,0,253,25a4.13,4.13,0,0,0-2.74.92,5,5,0,0,0-1.56,2.66,3.09,3.09,0,0,0,.17,2.62,2.67,2.67,0,0,0,2.33.89,4,4,0,0,0,2.1-.51,2.75,2.75,0,0,0,1.19-1.48" transform="translate(-2.87 -2.87)"/><path class="cls-6" d="M262.65,29.39l0,.1a2.07,2.07,0,0,0,.33,2.05,3,3,0,0,0,2.26.71,3.69,3.69,0,0,0,1.9-.46,2.58,2.58,0,0,0,1.14-1.3h3.22A5.32,5.32,0,0,1,269,33.21a9.08,9.08,0,0,1-4.38,1q-3.17,0-4.56-1.44a4,4,0,0,1-.7-4,7.32,7.32,0,0,1,2.9-4.22A8.91,8.91,0,0,1,267.5,23c2,0,3.45.5,4.23,1.51s.89,2.49.36,4.47l-.11.43Zm.5-1.87h6a2,2,0,0,0-.33-1.83,2.75,2.75,0,0,0-2-.61,3.94,3.94,0,0,0-2.26.65A3.63,3.63,0,0,0,263.15,27.52Z" transform="translate(-2.87 -2.87)"/></svg>