<svg id="Layer_1" data-name="Layer 1" xmlns="http://www.w3.org/2000/svg" viewBox="0 0 269.54 31.32"><defs><style>.cls-1{fill:#f58220;}.cls-1,.cls-2,.cls-3{fill-rule:evenodd;}.cls-2{fill:#b02a30;}.cls-3{fill:#fff;}.cls-4{fill:#004a80;}</style></defs><title>logo</title><path class="cls-1" d="M8.13,6.74c7.12-7,15.73-8.86,19.2-4.05s.4,14.53-6.72,21.57S4.88,33.17,1.41,28.35,1,13.82,8.13,6.74"/><path class="cls-2" d="M12.84,3A24.6,24.6,0,0,0,10.5,5c-6.24,6.17-8.83,14.6-5.76,18.84s10.84,2.7,17.19-3.54A24.34,24.34,0,0,0,28.61,9.48a10.23,10.23,0,0,0-1.28-6.79C24.59-1.07,18.71-.77,12.84,3"/><path class="cls-3" d="M16.38,27.77C13.06,30.29,9.59,31.53,6.23,31c1.43.07,2.56-1.5,3.51-3.58a37.49,37.49,0,0,0,2-6c.65-3,.69-5.07.36-5.55-.58-.73-1.86-.55-3.32.29-.73.41-1.64.15-.55-1.2s5.55-4.6,7.16-5.11,3.76.18,3.06,2.12c-.47,1.38-6.6,17.52-2,15.84m5-25c.84.84.32,2.66-1.1,4.08S17,8.75,16.23,8s-.36-2.67,1.06-4.13S20.61,2,21.42,2.77Z"/><polygon class="cls-4" points="28.68 31.04 32.77 15.72 38.2 15.72 34.12 31.04 28.68 31.04"/><path class="cls-4" d="M51.39,20.66A2,2,0,0,0,50.86,19,2.78,2.78,0,0,0,49,18.43a5.19,5.19,0,0,0-3.52,1.26,6.91,6.91,0,0,0-2.07,3.59,4.25,4.25,0,0,0,.18,3.44,3.08,3.08,0,0,0,2.82,1.21,4.68,4.68,0,0,0,2.57-.69,4.4,4.4,0,0,0,1.64-2h5.62a7.91,7.91,0,0,1-3.79,4.44,15.57,15.57,0,0,1-7.29,1.44q-4.43,0-6.37-2c-1.29-1.33-1.61-3.2-1-5.6a10.23,10.23,0,0,1,4.18-6.06,13.55,13.55,0,0,1,7.85-2.14q4.11,0,5.92,1.36a3.72,3.72,0,0,1,1.28,4Z"/><polygon class="cls-4" points="56.13 31.04 60.22 15.72 65.65 15.72 61.56 31.04 56.13 31.04"/><path class="cls-4" d="M78.83,20.66A2,2,0,0,0,78.31,19a2.79,2.79,0,0,0-1.91-.56,5.19,5.19,0,0,0-3.52,1.26,6.91,6.91,0,0,0-2.07,3.59A4.25,4.25,0,0,0,71,26.72a3.06,3.06,0,0,0,2.81,1.21,4.66,4.66,0,0,0,2.57-.69,4.36,4.36,0,0,0,1.65-2h5.62a7.93,7.93,0,0,1-3.8,4.44,15.5,15.5,0,0,1-7.28,1.44q-4.44,0-6.37-2t-1-5.6a10.26,10.26,0,0,1,4.17-6.06,13.61,13.61,0,0,1,7.86-2.14q4.11,0,5.92,1.36a3.72,3.72,0,0,1,1.28,4Z"/><polygon class="cls-4" points="83.58 31.04 87.66 15.72 93.1 15.72 89.01 31.04 83.58 31.04"/><polygon class="cls-4" points="100.38 31.04 96.8 31.04 100.89 15.72 104.46 15.72 102.82 21.87 111.29 21.87 112.93 15.72 116.51 15.72 112.42 31.04 108.84 31.04 110.63 24.34 102.16 24.34 100.38 31.04"/><path class="cls-4" d="M130.54,25.7a6.87,6.87,0,0,1-2.94,4.12A9.82,9.82,0,0,1,122,31.3q-3.3,0-4.76-1.48a4,4,0,0,1-.76-4.12,6.94,6.94,0,0,1,3-4.12A10,10,0,0,1,125,20.1c2.21,0,3.8.5,4.77,1.48s1.21,2.36.74,4.12M120,25.7a2.81,2.81,0,0,0,.32,2.5,2.69,2.69,0,0,0,2.28,1,4.52,4.52,0,0,0,2.81-1,4.58,4.58,0,0,0,1.65-2.5,2.72,2.72,0,0,0-.32-2.49,2.68,2.68,0,0,0-2.29-1,4.45,4.45,0,0,0-2.8,1A4.52,4.52,0,0,0,120,25.7Z"/><path class="cls-4" d="M149.18,31l1.48-5.58a3.48,3.48,0,0,0,0-2.43,1.77,1.77,0,0,0-1.72-.82,3.75,3.75,0,0,0-2.46.95A4.66,4.66,0,0,0,145,25.58L143.52,31h-3.2l1.49-5.58a3.53,3.53,0,0,0,0-2.43,1.77,1.77,0,0,0-1.71-.82,3.72,3.72,0,0,0-2.45,1,4.69,4.69,0,0,0-1.52,2.41L134.67,31h-3.26l2-7.55c.05-.16.12-.5.23-1s.24-1.22.41-2.11h3.15l-.38,1.85a6.68,6.68,0,0,1,2.23-1.57,7,7,0,0,1,2.74-.51,4.8,4.8,0,0,1,2.46.53,2.36,2.36,0,0,1,1.15,1.58,7.84,7.84,0,0,1,2.35-1.61,6.66,6.66,0,0,1,2.65-.5,5.87,5.87,0,0,1,2.11.34,3,3,0,0,1,1.37,1,2.38,2.38,0,0,1,.45,1.28,6.83,6.83,0,0,1-.31,2.1L152.38,31Z"/><path class="cls-4" d="M159.19,26.51l0,.11a2,2,0,0,0,.32,2,3,3,0,0,0,2.27.72,3.79,3.79,0,0,0,1.9-.46,2.63,2.63,0,0,0,1.14-1.3H168a5.3,5.3,0,0,1-2.53,2.72,9.14,9.14,0,0,1-4.38,1c-2.11,0-3.63-.48-4.55-1.44a3.94,3.94,0,0,1-.7-4,7.21,7.21,0,0,1,2.9-4.22A8.89,8.89,0,0,1,164,20.1c2,0,3.45.51,4.22,1.51s.9,2.5.37,4.48l-.11.42Zm.5-1.86,6,0a1.91,1.91,0,0,0-.32-1.82,2.77,2.77,0,0,0-2-.62,4,4,0,0,0-2.26.65A3.65,3.65,0,0,0,159.69,24.65Z"/><polygon class="cls-4" points="174.42 31.04 178.51 15.72 191.17 15.72 190.55 18.05 181.37 18.05 180.36 21.83 188.8 21.83 188.15 24.24 179.72 24.24 177.9 31.04 174.42 31.04"/><path class="cls-4" d="M189.1,31,192,20.36h3.43L192.53,31Zm7.62-15.32L196,18.5h-3.64l.74-2.78Z"/><path class="cls-4" d="M195.77,31l2-7.55c.06-.2.14-.56.25-1.08l.39-2.05h3.25l-.36,1.85a6.93,6.93,0,0,1,2.32-1.56,7.34,7.34,0,0,1,2.82-.52,4.48,4.48,0,0,1,3.45,1.14,3.29,3.29,0,0,1,.48,3.22L208.64,31h-3.23l1.49-5.58a3.09,3.09,0,0,0-.08-2.43,2.1,2.1,0,0,0-1.94-.82,4.59,4.59,0,0,0-4.36,3.37L199.06,31Z"/><path class="cls-4" d="M219.72,31l.3-1.47a6.74,6.74,0,0,1-2.19,1.29,7.7,7.7,0,0,1-2.62.44,4.45,4.45,0,0,1-3.14-.94,2.37,2.37,0,0,1-.57-2.51,4,4,0,0,1,2.39-2.72,15.23,15.23,0,0,1,5.8-.83h1.71l.06-.2a1.9,1.9,0,0,0-.15-1.71,2.12,2.12,0,0,0-1.71-.56,3.92,3.92,0,0,0-1.82.36,2.12,2.12,0,0,0-1,1.1l-3.14,0a4.15,4.15,0,0,1,2.23-2.37,9.72,9.72,0,0,1,4.32-.84c1.84,0,3.12.36,3.86,1.08a3.1,3.1,0,0,1,.53,3.2l-1.14,4.28c-.12.46-.22.88-.3,1.27S223,30.69,223,31Zm1.2-4.93h-2.07a7.39,7.39,0,0,0-2.85.41,2,2,0,0,0-1.16,1.37,1,1,0,0,0,.27,1.17,2.45,2.45,0,0,0,1.57.4,4.39,4.39,0,0,0,2.67-.85,4.17,4.17,0,0,0,1.52-2.31Z"/><path class="cls-4" d="M225.87,31l2-7.55q.08-.3.24-1.08c.1-.52.24-1.2.4-2.05h3.25l-.37,1.85a6.93,6.93,0,0,1,2.32-1.56,7.35,7.35,0,0,1,2.83-.52A4.45,4.45,0,0,1,240,21.27a3.29,3.29,0,0,1,.49,3.22L238.74,31h-3.22L237,25.46a3.14,3.14,0,0,0-.08-2.43,2.12,2.12,0,0,0-1.94-.82,4.59,4.59,0,0,0-4.37,3.37L229.16,31Z"/><path class="cls-4" d="M251.56,27.25h3.33a5.15,5.15,0,0,1-2.56,3,9.68,9.68,0,0,1-4.76,1.08q-3.19,0-4.59-1.45a4,4,0,0,1-.7-4.05,7.16,7.16,0,0,1,2.93-4.22,9.7,9.7,0,0,1,5.52-1.48,6.42,6.42,0,0,1,3.9,1,2.49,2.49,0,0,1,1,2.67h-3.16a1.48,1.48,0,0,0-.66-1.2,3.05,3.05,0,0,0-1.73-.42,4.12,4.12,0,0,0-2.74.91,5,5,0,0,0-1.57,2.66,3.15,3.15,0,0,0,.17,2.63,2.69,2.69,0,0,0,2.34.88,4,4,0,0,0,2.1-.51,2.74,2.74,0,0,0,1.18-1.47"/><path class="cls-4" d="M259.78,26.51l0,.11a2,2,0,0,0,.32,2,3,3,0,0,0,2.27.72,3.79,3.79,0,0,0,1.9-.46,2.63,2.63,0,0,0,1.14-1.3h3.22a5.3,5.3,0,0,1-2.53,2.72,9.14,9.14,0,0,1-4.38,1c-2.11,0-3.63-.48-4.55-1.44a3.94,3.94,0,0,1-.7-4,7.21,7.21,0,0,1,2.9-4.22,8.88,8.88,0,0,1,5.28-1.55c2.05,0,3.46.51,4.23,1.51s.9,2.5.37,4.48l-.11.42Zm.49-1.86,6,0a1.91,1.91,0,0,0-.32-1.82,2.77,2.77,0,0,0-2-.62,4,4,0,0,0-2.26.65A3.67,3.67,0,0,0,260.27,24.65Z"/></svg>